<svg height="475.312pt" viewBox="0 0 475.312 475.312" width="475.312pt" xmlns="http://www.w3.org/2000/svg"><path d="m435.71875 395.710938-11.3125 11.3125 20.28125 20.289062h-396.6875v-24h128v-64h-128v-24h208v-64h-208v-24h272v-64h-272v-24h352v-64h-352v-44.6875l20.28125 20.285156 11.3125-11.308594-39.59375-39.601562-39.59375 39.601562 11.3125 11.308594 20.28125-20.285156v396.6875h-32v16h32v32h16v-32h48v32h16v-32h48v32h16v-32h48v32h16v-32h48v32h16v-32h48v32h16v-32h76.6875l-20.28125 20.289062 11.3125 11.308594 39.59375-39.597656zm-51.71875-304.398438v32h-336v-32zm-80 88v32h-256v-32zm-64 88v32h-192v-32zm-80 88v32h-112v-32zm0 0"/></svg>